<svg width="396" height="397" viewBox="0 0 396 397" fill="none" xmlns="http://www.w3.org/2000/svg">
<path d="M135.155 394.729C129.25 396.785 122.71 396.601 116.464 393.988C106.029 389.614 99.8384 379.855 100.307 368.525L103.669 287.731C105.028 255.13 92.1457 223.668 68.3444 201.416L9.34569 146.259C1.07285 138.523 -1.35894 127.218 3.00397 116.757C7.36689 106.297 17.102 100.09 28.4026 100.56L108.993 103.93C141.513 105.285 172.895 92.378 195.091 68.5166L250.109 9.36896C257.825 1.07522 269.102 -1.36271 279.536 3.01122C289.971 7.38515 296.162 17.1448 295.693 28.474L292.331 109.268C290.972 141.87 303.854 173.332 327.656 195.584L386.646 250.732C394.919 258.468 397.351 269.773 392.988 280.234C388.625 290.695 378.89 296.909 367.589 296.431L286.999 293.061C254.479 291.707 223.097 304.613 200.901 328.475L145.891 387.614C142.792 390.945 139.121 393.335 135.155 394.713V394.729Z" stroke="white" stroke-width="0.75" stroke-miterlimit="10"/>
<path d="M140.527 388.706C133.16 388.395 124.363 387.033 115.724 384.762C106.236 380.787 93.2821 372.174 93.7033 361.865C92.6782 361.905 94.8477 287.882 94.4583 286.926C95.3007 256.333 83.8252 226.711 62.9404 205.782L14.702 150.665C9.35364 141.623 8.33642 128.493 12.2066 116.016C16.1722 106.504 24.7709 93.5173 35.0464 93.9475C35.0066 92.9198 108.842 95.0948 109.796 94.7044C140.313 95.5489 169.86 84.0444 190.736 63.1069L245.714 14.7467C254.734 9.39284 267.83 8.36509 280.276 12.2451C289.764 16.2206 302.718 24.8331 302.297 35.1425C303.322 35.1026 301.152 109.125 301.542 110.081C300.699 140.675 312.175 170.296 333.06 191.226L381.29 246.342C386.638 255.385 387.656 268.514 383.785 280.991C379.82 290.504 371.229 303.49 360.946 303.068C360.962 303.482 287.611 300.813 287.444 301.156C257.634 300.431 228.676 312.58 207.926 334.506C206.972 334.896 155.944 388.435 155.245 387.678C152.432 390.706 144.119 387.463 140.519 388.722L140.527 388.706Z" stroke="white" stroke-width="0.75" stroke-miterlimit="10"/>
<path d="M145.899 382.683C137.062 379.998 126.016 377.465 114.993 375.529C106.45 371.951 86.7338 364.478 87.1153 355.205C85.057 355.276 86.0424 288.034 85.2636 286.122C85.5894 257.544 75.5126 229.747 57.5523 210.148L20.0742 155.071C17.6583 144.722 18.0477 129.776 21.4172 115.284C24.9854 106.719 32.4398 86.9528 41.6901 87.3352C41.6186 85.2717 108.691 86.2596 110.599 85.4789C139.105 85.8055 166.832 75.7032 186.381 57.6976L241.319 20.1248C251.642 17.7029 266.551 18.0932 281.007 21.4713C289.55 25.0485 309.266 32.5216 308.885 41.7953C310.943 41.7236 309.958 108.974 310.736 110.878C310.411 139.456 320.487 167.253 338.448 186.852L375.926 241.929C378.342 252.278 377.952 267.224 374.583 281.716C371.015 290.281 363.56 310.047 354.31 309.665C354.342 310.493 288.23 308.517 287.897 309.203C260.797 309.115 234.254 320.5 214.959 340.489C213.06 341.27 165.997 389.208 164.607 387.686C162.072 390.411 149.134 381.544 145.891 382.675L145.899 382.683Z" stroke="white" stroke-width="0.75" stroke-miterlimit="10"/>
<path d="M151.264 376.66C140.956 371.609 127.669 367.896 114.254 366.303C106.665 363.124 80.1775 356.798 80.5192 348.552C77.4358 348.664 77.2371 288.186 76.0609 285.326C75.8782 258.755 67.1921 232.799 52.1563 214.514L25.4384 159.477C25.955 147.83 27.7589 131.051 30.6199 114.543C33.7907 106.935 40.1086 80.3802 48.3258 80.7228C48.2146 77.6316 108.54 77.4324 111.393 76.2533C137.897 76.07 163.788 67.362 182.027 52.2883L236.925 25.5029C248.543 26.0208 265.28 27.8293 281.746 30.6975C289.335 33.8763 315.823 40.2022 315.481 48.4481C318.564 48.3366 318.763 108.815 319.939 111.675C320.122 138.245 328.808 164.202 343.844 182.486L370.562 237.523C370.045 249.171 368.241 265.95 365.38 282.457C362.209 290.066 355.899 316.62 347.674 316.278C347.714 317.521 288.858 316.238 288.358 317.274C263.968 317.823 239.849 328.443 221.992 346.497C219.139 347.668 176.058 389.997 173.968 387.727C171.711 390.149 154.148 375.656 151.264 376.66Z" stroke="white" stroke-width="0.75" stroke-miterlimit="10"/>
<path d="M156.636 370.637C144.866 363.212 129.322 358.328 113.515 357.077C106.872 354.297 73.6212 349.11 73.9152 341.9C69.8066 342.043 68.4159 288.345 66.8583 284.529C66.1589 259.966 58.8795 235.842 46.7523 218.888L30.7947 163.883C34.2358 150.929 37.4543 132.326 39.8146 113.81C42.596 107.15 47.7616 73.8153 54.9537 74.1181C54.8106 69.9991 108.374 68.6049 112.18 67.0433C136.681 66.3422 160.744 59.0444 177.656 46.8866L232.522 30.8887C245.444 34.3464 264 37.5651 282.469 39.9313C289.113 42.7118 322.363 47.8984 322.069 55.1086C326.177 54.9652 327.568 108.663 329.126 112.48C329.825 137.042 337.105 161.167 349.232 178.12L365.189 233.125C361.748 246.08 358.53 264.683 356.17 283.198C353.396 289.859 348.223 323.193 341.03 322.898C341.086 324.556 289.47 323.974 288.803 325.344C267.115 326.531 245.42 336.387 229.017 352.512C225.211 354.082 186.111 390.802 183.322 387.766C181.351 389.886 159.155 369.761 156.628 370.645L156.636 370.637Z" stroke="white" stroke-width="0.75" stroke-miterlimit="10"/>
<path d="M162.008 364.606C148.768 354.815 130.975 348.752 112.784 347.844C107.094 345.453 67.0728 341.422 67.3271 335.24C62.1854 335.423 59.6106 288.497 57.6636 283.732C56.4477 261.178 50.5669 238.886 41.3642 223.262L36.1669 168.297C42.5404 154.036 47.1655 133.608 49.0251 113.077C51.4093 107.373 55.4384 67.2506 61.5973 67.5056C61.4146 62.3509 108.223 59.7695 112.983 57.8176C135.481 56.5986 157.717 50.703 173.301 41.4771L228.127 36.2666C242.352 42.6562 262.728 47.2931 283.208 49.1574C288.898 51.5475 328.919 55.5788 328.665 61.7613C333.807 61.578 336.381 108.504 338.328 113.276C339.544 135.831 345.425 158.123 354.628 173.747L359.825 228.712C353.452 242.973 348.826 263.4 346.967 283.932C344.583 289.636 340.562 329.758 334.395 329.503C334.466 331.575 290.09 331.686 289.264 333.407C270.286 335.232 251.007 344.322 236.058 358.511C231.298 360.471 196.18 391.591 192.691 387.79C190.999 389.607 164.17 363.857 162.008 364.614V364.606Z" stroke="white" stroke-width="0.75" stroke-miterlimit="10"/>
<path d="M167.38 358.583C152.678 346.417 132.636 339.183 112.053 338.61C107.309 336.618 60.5245 333.726 60.7391 328.579C54.5722 328.794 50.8133 288.648 48.4689 282.928C46.7444 262.388 42.2543 241.929 35.9762 227.628L41.5391 172.695C50.845 157.127 56.8768 134.875 58.2437 112.336C60.2305 107.58 63.1152 60.6777 68.257 60.8928C68.0424 54.7104 108.087 50.9419 113.793 48.5916C134.281 46.8628 154.689 42.3614 168.954 36.0674L223.748 41.6443C239.277 50.9738 261.473 57.0208 283.955 58.3912C288.699 60.3829 335.483 63.275 335.269 68.4297C341.436 68.2146 345.195 108.361 347.539 114.081C349.264 134.62 353.754 155.08 360.032 169.381L354.469 224.314C345.163 239.881 339.131 262.134 337.764 284.672C335.777 289.429 332.893 336.331 327.751 336.116C327.838 338.602 290.702 339.406 289.709 341.478C273.441 343.94 256.585 352.265 243.075 364.519C237.37 366.869 206.217 392.379 202.045 387.83C200.638 389.344 169.176 357.97 167.38 358.599V358.583Z" stroke="white" stroke-width="0.75" stroke-miterlimit="10"/>
<path d="M172.744 352.56C156.572 338.028 134.281 329.614 111.306 329.383C107.507 327.79 53.9603 326.045 54.1351 321.918C46.9431 322.173 41.9921 288.799 39.2583 282.123C37.0172 263.591 33.9338 244.964 30.5722 231.986L46.8954 177.092C59.1258 160.218 66.5722 136.15 67.4384 111.587C69.0278 107.779 70.7762 54.0966 74.8848 54.2718C74.6305 47.0616 107.921 42.0981 114.58 39.3574C133.065 37.1107 151.645 34.0195 164.591 30.6494L219.346 47.0138C236.178 59.2752 260.185 66.7403 284.686 67.6087C288.485 69.2022 342.032 70.9469 341.857 75.0739C349.049 74.819 354 108.193 356.734 114.869C358.975 133.401 362.058 152.028 365.42 165.006L349.097 219.9C336.866 236.774 329.42 260.843 328.554 285.405C326.964 289.213 325.224 342.896 321.107 342.728C321.211 345.628 291.322 347.134 290.154 349.54C276.596 352.631 262.156 360.2 250.101 370.517C243.441 373.258 216.27 393.168 211.399 387.854C210.27 389.065 174.183 352.066 172.744 352.56Z" stroke="white" stroke-width="0.75" stroke-miterlimit="10"/>
<path d="M178.117 346.537C160.482 329.631 135.934 320.046 110.575 320.158C107.73 318.963 47.4119 318.357 47.5391 315.266C39.3139 315.553 33.1868 288.959 30.0636 281.326C27.3139 264.802 25.6212 248.016 25.1841 236.36L52.2676 181.499C67.4305 163.326 76.2835 137.425 76.649 110.854C77.8411 108.002 78.445 47.532 81.5285 47.6595C81.2424 39.4135 107.77 33.2709 115.383 30.1398C131.865 27.3753 148.609 25.6862 160.236 25.248L214.959 52.3999C233.086 67.6011 258.922 76.4764 285.425 76.8429C288.27 78.038 348.588 78.6435 348.461 81.7347C356.686 81.4479 362.813 108.042 365.936 115.675C368.686 132.198 370.379 148.985 370.816 160.641L343.732 215.502C328.57 233.675 319.717 259.576 319.351 286.146C318.159 288.999 317.555 349.469 314.472 349.341C314.583 352.656 291.942 354.854 290.615 357.611C279.767 361.34 267.751 368.144 257.142 376.525C249.529 379.656 226.339 393.957 220.768 387.886C219.926 388.794 179.205 346.162 178.125 346.537H178.117Z" stroke="white" stroke-width="0.75" stroke-miterlimit="10"/>
<path d="M183.489 340.514C164.384 321.241 137.595 310.478 109.844 310.932C107.944 310.135 40.8636 310.677 40.951 308.613C31.7007 308.94 24.3815 289.118 20.8689 280.529C17.6026 266.013 17.3086 251.059 19.796 240.734L57.6397 185.912C75.7351 166.433 85.9947 138.707 85.8596 110.121C86.6543 108.217 86.1139 40.967 88.1722 41.0547C87.8463 31.781 107.619 24.4433 116.185 20.9218C130.665 17.6474 145.581 17.3526 155.881 19.8463L210.564 57.7856C229.995 75.9266 257.65 86.2121 286.164 86.0767C288.064 86.8734 355.144 86.3316 355.057 88.3951C364.307 88.0685 371.626 107.891 375.139 116.479C378.405 130.995 378.699 145.949 376.212 156.275L338.368 211.096C320.273 230.576 310.013 258.301 310.148 286.887C309.354 288.791 309.894 356.041 307.836 355.954C307.963 359.674 292.562 362.575 291.068 365.674C282.93 370.04 273.33 376.079 264.167 382.524C255.6 386.046 236.392 394.746 230.122 387.918C229.558 388.523 184.204 340.267 183.489 340.514Z" stroke="white" stroke-width="0.75" stroke-miterlimit="10"/>
<path d="M188.853 334.49C168.286 312.843 139.24 300.901 109.105 301.705C108.159 301.307 34.3073 302.988 34.355 301.96C24.0795 302.319 15.5682 289.277 11.6662 279.732C7.88343 267.232 8.99601 254.11 14.4 245.099L63.004 190.309C84.0238 169.523 95.698 139.973 95.0622 109.38C95.4596 108.432 93.7828 34.3935 94.8079 34.4414C94.4503 24.1399 107.46 15.6072 116.98 11.6953C129.449 7.90298 142.538 9.0104 151.526 14.436L206.177 63.1627C226.911 84.2357 256.387 95.9473 286.903 95.3019C287.849 95.7003 361.701 94.0192 361.653 95.047C371.928 94.6885 380.44 107.731 384.342 117.275C388.125 129.776 387.02 142.897 381.608 151.908L333.004 206.698C311.984 227.484 300.31 257.034 300.946 287.627C300.548 288.576 302.225 362.614 301.2 362.574C301.343 366.709 293.189 370.31 291.521 373.752C286.085 378.755 278.909 384.029 271.2 388.539C261.687 392.45 246.445 395.55 239.483 387.957C239.205 388.26 189.219 334.378 188.861 334.498L188.853 334.49Z" stroke="white" stroke-width="0.75" stroke-miterlimit="10"/>
<path d="M291.966 381.807C289.24 387.448 284.487 391.957 278.225 394.539C267.759 398.841 256.498 396.331 248.837 387.99L194.225 328.476C172.188 304.463 140.893 291.341 108.366 292.48L27.751 295.309C16.4424 295.707 6.75498 289.429 2.45564 278.936C-1.83575 268.444 0.667563 257.154 8.99604 249.474L68.3603 194.724C92.3126 172.631 105.401 141.257 104.265 108.648L101.444 27.8295C101.046 16.4923 107.309 6.78045 117.775 2.47025C128.241 -1.83198 139.502 0.677655 147.163 9.0192L201.775 68.5334C223.812 92.5462 255.107 105.668 287.634 104.529L368.249 101.708C379.558 101.31 389.245 107.588 393.544 118.081C397.836 128.573 395.332 139.863 387.012 147.543L327.648 202.293C303.695 224.386 290.607 255.76 291.743 288.369L294.564 369.187C294.723 373.737 293.809 378.031 291.981 381.815L291.966 381.807Z" stroke="white" stroke-width="0.75" stroke-miterlimit="10"/>
<ellipse cx="115.169" cy="30.345" rx="2.9609" ry="2.88116" fill="#CEEB13"/>
<ellipse cx="64.736" cy="266.282" rx="2.9609" ry="2.88116" fill="#CEEB13"/>
<ellipse cx="266.072" cy="329.511" rx="2.9609" ry="2.88116" fill="#CEEB13"/>
<ellipse cx="332.811" cy="137.537" rx="3.0596" ry="3.05385" fill="#CEEB13"/>
</svg>
